{
  "accessors": [
    {
      "bufferView": 2,
      "componentType": 5126,
      "count": 48583,
      "max": [
        0.903400182723999,
        0.714411735534668,
        3.055579423904419
      ],
      "min": [
        -0.935487687587738,
        -0.7145017385482788,
        0.0003506425709929317
      ],
      "type": "VEC3"
    },
    {
      "bufferView": 2,
      "byteOffset": 582996,
      "componentType": 5126,
      "count": 48583,
      "max": [
        1.0,
        1.0,
        1.0
      ],
      "min": [
        -1.0,
        -1.0,
        -1.0
      ],
      "type": "VEC3"
    },
    {
      "bufferView": 3,
      "componentType": 5126,
      "count": 48583,
      "max": [
        0.9999998807907104,
        1.0,
        1.0,
        1.0
      ],
      "min": [
        -0.9999998807907104,
        -1.0,
        -1.0,
        -1.0
      ],
      "type": "VEC4"
    },
    {
      "bufferView": 1,
      "componentType": 5126,
      "count": 48583,
      "max": [
        0.9996748566627502,
        0.9882305860519409
      ],
      "min": [
        0.008891893550753593,
        0.0003252524184063077
      ],
      "type": "VEC2"
    },
    {
      "bufferView": 1,
      "byteOffset": 388664,
      "componentType": 5126,
      "count": 48583,
      "max": [
        0.9996748566627502,
        0.9882305860519409
      ],
      "min": [
        0.008891893550753593,
        0.0003252524184063077
      ],
      "type": "VEC2"
    },
    {
      "bufferView": 0,
      "componentType": 5125,
      "count": 219648,
      "type": "SCALAR"
    }
  ],
  "asset": {
    "extras": {
      "author": "Nosakhae (https://sketchfab.com/NosTeam)",
      "license": "CC-BY-4.0 (http://creativecommons.org/licenses/by/4.0/)",
      "source": "https://sketchfab.com/3d-models/leather-high-bar-stool-b117e9bb6647471cbba974430dfd3726",
      "title": "Leather High Bar Stool"
    },
    "generator": "Sketchfab-13.40.0",
    "version": "2.0"
  },
  "bufferViews": [
    {
      "buffer": 0,
      "byteLength": 878592,
      "name": "floatBufferViews",
      "target": 34963
    },
    {
      "buffer": 0,
      "byteLength": 777328,
      "byteOffset": 878592,
      "byteStride": 8,
      "name": "floatBufferViews",
      "target": 34962
    },
    {
      "buffer": 0,
      "byteLength": 1165992,
      "byteOffset": 1655920,
      "byteStride": 12,
      "name": "floatBufferViews",
      "target": 34962
    },
    {
      "buffer": 0,
      "byteLength": 777328,
      "byteOffset": 2821912,
      "byteStride": 16,
      "name": "floatBufferViews",
      "target": 34962
    }
  ],
  "buffers": [
    {
      "byteLength": 3599240,
      "uri": "scene.bin"
    }
  ],
  "images": [
    {
      "uri": "textures/material_baseColor.png"
    },
    {
      "uri": "textures/material_metallicRoughness.png"
    },
    {
      "uri": "textures/material_normal.png"
    }
  ],
  "materials": [
    {
      "doubleSided": true,
      "name": "material",
      "normalTexture": {
        "index": 2
      },
      "occlusionTexture": {
        "index": 1
      },
      "pbrMetallicRoughness": {
        "baseColorTexture": {
          "index": 0
        },
        "metallicRoughnessTexture": {
          "index": 1
        }
      }
    }
  ],
  "meshes": [
    {
      "name": "KAC_KAC_0",
      "primitives": [
        {
          "attributes": {
            "NORMAL": 1,
            "POSITION": 0,
            "TANGENT": 2,
            "TEXCOORD_0": 3,
            "TEXCOORD_1": 4
          },
          "indices": 5,
          "material": 0,
          "mode": 4
        }
      ]
    }
  ],
  "nodes": [
    {
      "children": [
        1
      ],
      "matrix": [
        0.3242815434932709,
        9.186148149713694e-17,
        -9.186148149713689e-17,
        0.0,
        9.186148149713692e-17,
        -1.985651857952472e-17,
        0.3242815434932709,
        0.0,
        9.186148149713692e-17,
        -0.3242815434932709,
        -1.985651857952472e-17,
        0.0,
        0.0,
        0.0,
        0.0,
        1.0
      ],
      "name": "Sketchfab_model"
    },
    {
      "children": [
        2
      ],
      "matrix": [
        1.0,
        0.0,
        0.0,
        0.0,
        0.0,
        -1.0,
        0.0,
        0.0,
        0.0,
        0.0,
        -1.0,
        0.0,
        0.0,
        0.0,
        0.0,
        1.0
      ],
      "name": "KAC.fbx"
    },
    {
      "children": [
        3
      ],
      "name": "RootNode"
    },
    {
      "children": [
        4
      ],
      "name": "KAC"
    },
    {
      "mesh": 0,
      "name": "KAC_KAC_0"
    }
  ],
  "samplers": [
    {
      "magFilter": 9729,
      "minFilter": 9987,
      "wrapS": 10497,
      "wrapT": 10497
    }
  ],
  "scene": 0,
  "scenes": [
    {
      "name": "Sketchfab_Scene",
      "nodes": [
        0
      ]
    }
  ],
  "textures": [
    {
      "sampler": 0,
      "source": 0
    },
    {
      "sampler": 0,
      "source": 1
    },
    {
      "sampler": 0,
      "source": 2
    }
  ]
}
