{
  "accessors": [
    {
      "bufferView": 3,
      "componentType": 5126,
      "count": 3096,
      "max": [
        1.0523607730865479,
        0.836185097694397,
        0.195278137922287
      ],
      "min": [
        -0.5319111943244934,
        -0.3416420519351959,
        -0.7341535091400146
      ],
      "type": "VEC3"
    },
    {
      "bufferView": 3,
      "byteOffset": 37152,
      "componentType": 5126,
      "count": 3096,
      "max": [
        1.0,
        1.0,
        0.9999883770942688
      ],
      "min": [
        -1.0,
        -1.0,
        -0.9999913573265076
      ],
      "type": "VEC3"
    },
    {
      "bufferView": 2,
      "componentType": 5126,
      "count": 3096,
      "max": [
        0.8129879832267761,
        0.9967039823532104
      ],
      "min": [
        0.00646999990567565,
        0.0034179999493062496
      ],
      "type": "VEC2"
    },
    {
      "bufferView": 1,
      "componentType": 5125,
      "count": 10383,
      "type": "SCALAR"
    },
    {
      "bufferView": 5,
      "componentType": 5126,
      "count": 2,
      "max": [
        90.90927124023438,
        0.0,
        0.0,
        0.0,
        0.0,
        1.0,
        90.90927124023438,
        0.0,
        0.0,
        0.0,
        1.0,
        0.0,
        0.0,
        0.0,
        31.011878967285156,
        1.0
      ],
      "min": [
        1.0,
        0.0,
        0.0,
        0.0,
        0.0,
        0.0,
        0.0,
        0.0,
        0.0,
        -90.90927124023438,
        0.0,
        0.0,
        -27.71406364440918,
        -24.525619506835938,
        0.0,
        1.0
      ],
      "type": "MAT4"
    },
    {
      "bufferView": 0,
      "componentType": 5123,
      "count": 3096,
      "type": "VEC4"
    },
    {
      "bufferView": 4,
      "componentType": 5126,
      "count": 3096,
      "max": [
        1.0,
        0.0,
        0.0,
        0.0
      ],
      "min": [
        1.0,
        0.0,
        0.0,
        0.0
      ],
      "type": "VEC4"
    }
  ],
  "asset": {
    "extras": {
      "author": "WafflingBoot587 (https://sketchfab.com/WafflingBoot587)",
      "license": "CC-BY-4.0 (http://creativecommons.org/licenses/by/4.0/)",
      "source": "https://sketchfab.com/3d-models/shopping-cart-model-5d8cd259156248cca4e1cdcba6ffea67",
      "title": "Shopping Cart Model"
    },
    "generator": "Sketchfab-12.66.0",
    "version": "2.0"
  },
  "bufferViews": [
    {
      "buffer": 0,
      "byteLength": 24768,
      "byteStride": 8,
      "name": "shortBufferViews",
      "target": 34962
    },
    {
      "buffer": 0,
      "byteLength": 41532,
      "byteOffset": 24768,
      "name": "floatBufferViews",
      "target": 34963
    },
    {
      "buffer": 0,
      "byteLength": 24768,
      "byteOffset": 66300,
      "byteStride": 8,
      "name": "floatBufferViews",
      "target": 34962
    },
    {
      "buffer": 0,
      "byteLength": 74304,
      "byteOffset": 91068,
      "byteStride": 12,
      "name": "floatBufferViews",
      "target": 34962
    },
    {
      "buffer": 0,
      "byteLength": 49536,
      "byteOffset": 165372,
      "byteStride": 16,
      "name": "floatBufferViews",
      "target": 34962
    },
    {
      "buffer": 0,
      "byteLength": 128,
      "byteOffset": 214908,
      "name": "floatBufferViews"
    }
  ],
  "buffers": [
    {
      "byteLength": 215036,
      "uri": "scene.bin"
    }
  ],
  "images": [
    {
      "uri": "textures/ShoppingCart_baseColor.png"
    }
  ],
  "materials": [
    {
      "doubleSided": true,
      "name": "ShoppingCart",
      "pbrMetallicRoughness": {
        "baseColorTexture": {
          "index": 0
        },
        "metallicFactor": 0.0,
        "roughnessFactor": 0.5
      }
    }
  ],
  "meshes": [
    {
      "name": "Object_0",
      "primitives": [
        {
          "attributes": {
            "JOINTS_0": 5,
            "NORMAL": 1,
            "POSITION": 0,
            "TEXCOORD_0": 2,
            "WEIGHTS_0": 6
          },
          "indices": 3,
          "material": 0,
          "mode": 4
        }
      ]
    }
  ],
  "nodes": [
    {
      "children": [
        1
      ],
      "matrix": [
        1.0,
        0.0,
        0.0,
        0.0,
        0.0,
        2.220446049250313e-16,
        -1.0,
        0.0,
        0.0,
        1.0,
        2.220446049250313e-16,
        0.0,
        0.0,
        0.0,
        0.0,
        1.0
      ],
      "name": "Sketchfab_model"
    },
    {
      "children": [
        2
      ],
      "name": "root"
    },
    {
      "children": [
        3
      ],
      "matrix": [
        1.0,
        0.0,
        0.0,
        0.0,
        0.0,
        2.220446049250313e-16,
        1.0,
        0.0,
        0.0,
        -1.0,
        2.220446049250313e-16,
        0.0,
        0.0,
        0.0,
        0.0,
        1.0
      ],
      "name": "GLTF_SceneRootNode"
    },
    {
      "children": [
        4
      ],
      "matrix": [
        0.010999977588653564,
        0.0,
        0.0,
        0.0,
        0.0,
        0.010999977588653564,
        0.0,
        0.0,
        0.0,
        0.0,
        0.010999977588653564,
        0.0,
        0.3048540949821472,
        -0.34113001823425293,
        -0.26978129148483276,
        1.0
      ],
      "name": "shoppingcart.qc_skeleton_2"
    },
    {
      "children": [
        5,
        7,
        6
      ],
      "name": "GLTF_created_0"
    },
    {
      "children": [
        8
      ],
      "name": "GLTF_created_0_rootJoint"
    },
    {
      "name": "ShoppingCart_1"
    },
    {
      "mesh": 0,
      "name": "Object_7",
      "skin": 0
    },
    {
      "name": "static_prop_0",
      "rotation": [
        -0.5000000596046448,
        -0.49999991059303284,
        -0.49999991059303284,
        0.5000000596046448
      ]
    }
  ],
  "samplers": [
    {
      "magFilter": 9729,
      "minFilter": 9987,
      "wrapS": 10497,
      "wrapT": 10497
    }
  ],
  "scene": 0,
  "scenes": [
    {
      "name": "Sketchfab_Scene",
      "nodes": [
        0
      ]
    }
  ],
  "skins": [
    {
      "inverseBindMatrices": 4,
      "joints": [
        5,
        8
      ],
      "skeleton": 5
    }
  ],
  "textures": [
    {
      "sampler": 0,
      "source": 0
    }
  ]
}
