{
  "accessors": [
    {
      "bufferView": 2,
      "componentType": 5126,
      "count": 65532,
      "max": [
        1.3597489595413208,
        1.2403500080108643,
        2.9079880714416504
      ],
      "min": [
        -1.326706051826477,
        -1.5845650434494019,
        -0.02710999920964241
      ],
      "type": "VEC3"
    },
    {
      "bufferView": 2,
      "byteOffset": 786384,
      "componentType": 5126,
      "count": 65532,
      "max": [
        0.9998500943183899,
        0.9996610283851624,
        0.9999563694000244
      ],
      "min": [
        -0.9997777342796326,
        -0.9999881386756897,
        -1.0
      ],
      "type": "VEC3"
    },
    {
      "bufferView": 1,
      "componentType": 5126,
      "count": 65532,
      "max": [
        0.9989010095596313,
        0.9708830118179321
      ],
      "min": [
        0.001101000001654029,
        0.7238789796829224
      ],
      "type": "VEC2"
    },
    {
      "bufferView": 0,
      "componentType": 5125,
      "count": 65532,
      "type": "SCALAR"
    },
    {
      "bufferView": 2,
      "byteOffset": 1572768,
      "componentType": 5126,
      "count": 65532,
      "max": [
        1.3597489595413208,
        1.239851951599121,
        2.906032085418701
      ],
      "min": [
        -1.3237049579620361,
        -1.5762050151824951,
        0.07705800235271454
      ],
      "type": "VEC3"
    },
    {
      "bufferView": 2,
      "byteOffset": 2359152,
      "componentType": 5126,
      "count": 65532,
      "max": [
        0.9999915361404419,
        0.9999377727508545,
        0.9999856352806091
      ],
      "min": [
        -0.9992650151252747,
        -0.9999211430549622,
        -0.9995701313018799
      ],
      "type": "VEC3"
    },
    {
      "bufferView": 1,
      "byteOffset": 524256,
      "componentType": 5126,
      "count": 65532,
      "max": [
        0.9988489747047424,
        0.9989010095596313
      ],
      "min": [
        0.040810998529195786,
        0.8331339955329895
      ],
      "type": "VEC2"
    },
    {
      "bufferView": 0,
      "byteOffset": 262128,
      "componentType": 5125,
      "count": 65532,
      "type": "SCALAR"
    },
    {
      "bufferView": 2,
      "byteOffset": 3145536,
      "componentType": 5126,
      "count": 65532,
      "max": [
        1.3155089616775513,
        0.6659979820251465,
        2.7262120246887207
      ],
      "min": [
        -0.971572995185852,
        -1.1233899593353271,
        0.019798999652266502
      ],
      "type": "VEC3"
    },
    {
      "bufferView": 2,
      "byteOffset": 3931920,
      "componentType": 5126,
      "count": 65532,
      "max": [
        0.9811310172080994,
        0.9992601275444031,
        0.9999607801437378
      ],
      "min": [
        -0.9999915361404419,
        -0.9992932677268982,
        -0.9618056416511536
      ],
      "type": "VEC3"
    },
    {
      "bufferView": 1,
      "byteOffset": 1048512,
      "componentType": 5126,
      "count": 65532,
      "max": [
        0.8497200012207031,
        0.998885989189148
      ],
      "min": [
        0.20273399353027344,
        0.9419010281562805
      ],
      "type": "VEC2"
    },
    {
      "bufferView": 0,
      "byteOffset": 524256,
      "componentType": 5125,
      "count": 65532,
      "type": "SCALAR"
    },
    {
      "bufferView": 2,
      "byteOffset": 4718304,
      "componentType": 5126,
      "count": 65532,
      "max": [
        1.3561190366744995,
        0.9877070188522339,
        2.8962979316711426
      ],
      "min": [
        -1.3255709409713745,
        -1.5286040306091309,
        0.16011400520801544
      ],
      "type": "VEC3"
    },
    {
      "bufferView": 2,
      "byteOffset": 5504688,
      "componentType": 5126,
      "count": 65532,
      "max": [
        0.998897910118103,
        0.9999921321868896,
        0.9999725222587585
      ],
      "min": [
        -0.9950610995292664,
        -0.9999948740005493,
        -0.9651560187339783
      ],
      "type": "VEC3"
    },
    {
      "bufferView": 1,
      "byteOffset": 1572768,
      "componentType": 5126,
      "count": 65532,
      "max": [
        0.38510099053382874,
        0.9988999962806702
      ],
      "min": [
        0.001155999954789877,
        0.8784859776496887
      ],
      "type": "VEC2"
    },
    {
      "bufferView": 0,
      "byteOffset": 786384,
      "componentType": 5125,
      "count": 65532,
      "type": "SCALAR"
    },
    {
      "bufferView": 2,
      "byteOffset": 6291072,
      "componentType": 5126,
      "count": 65532,
      "max": [
        1.3437199592590332,
        1.1688200235366821,
        2.896697998046875
      ],
      "min": [
        -1.3114060163497925,
        -1.5651730298995972,
        0.07041099667549133
      ],
      "type": "VEC3"
    },
    {
      "bufferView": 2,
      "byteOffset": 7077456,
      "componentType": 5126,
      "count": 65532,
      "max": [
        0.999331533908844,
        0.9999679923057556,
        0.9998887777328491
      ],
      "min": [
        -0.9999933838844299,
        -0.9999121427536011,
        -0.9797555208206177
      ],
      "type": "VEC3"
    },
    {
      "bufferView": 1,
      "byteOffset": 2097024,
      "componentType": 5126,
      "count": 65532,
      "max": [
        0.9930059909820557,
        0.998894989490509
      ],
      "min": [
        0.0011680000461637974,
        0.8332350254058838
      ],
      "type": "VEC2"
    },
    {
      "bufferView": 0,
      "byteOffset": 1048512,
      "componentType": 5125,
      "count": 65532,
      "type": "SCALAR"
    },
    {
      "bufferView": 2,
      "byteOffset": 7863840,
      "componentType": 5126,
      "count": 65532,
      "max": [
        1.3463809490203857,
        1.078328013420105,
        2.744175910949707
      ],
      "min": [
        -1.2550090551376343,
        -1.4201489686965942,
        0.11274799704551697
      ],
      "type": "VEC3"
    },
    {
      "bufferView": 2,
      "byteOffset": 8650224,
      "componentType": 5126,
      "count": 65532,
      "max": [
        0.9999020099639893,
        0.9976287484169006,
        0.999962329864502
      ],
      "min": [
        -0.9994292259216309,
        -0.9999202489852905,
        -0.9990161061286926
      ],
      "type": "VEC3"
    },
    {
      "bufferView": 1,
      "byteOffset": 2621280,
      "componentType": 5126,
      "count": 65532,
      "max": [
        0.9973059892654419,
        0.9712960124015808
      ],
      "min": [
        0.040863998234272,
        0.8784189820289612
      ],
      "type": "VEC2"
    },
    {
      "bufferView": 0,
      "byteOffset": 1310640,
      "componentType": 5125,
      "count": 65532,
      "type": "SCALAR"
    },
    {
      "bufferView": 2,
      "byteOffset": 9436608,
      "componentType": 5126,
      "count": 65532,
      "max": [
        1.354274034500122,
        1.2403500080108643,
        2.89438796043396
      ],
      "min": [
        -1.2808300256729126,
        -1.5829169750213623,
        0.10879799723625183
      ],
      "type": "VEC3"
    },
    {
      "bufferView": 2,
      "byteOffset": 10222992,
      "componentType": 5126,
      "count": 65532,
      "max": [
        0.9996694922447205,
        0.9999861121177673,
        0.999958872795105
      ],
      "min": [
        -0.9994843602180481,
        -0.9999879002571106,
        -0.9996233582496643
      ],
      "type": "VEC3"
    },
    {
      "bufferView": 1,
      "byteOffset": 3145536,
      "componentType": 5126,
      "count": 65532,
      "max": [
        0.9987649917602539,
        0.9988250136375427
      ],
      "min": [
        0.016527999192476273,
        0.8334670066833496
      ],
      "type": "VEC2"
    },
    {
      "bufferView": 0,
      "byteOffset": 1572768,
      "componentType": 5125,
      "count": 65532,
      "type": "SCALAR"
    },
    {
      "bufferView": 2,
      "byteOffset": 11009376,
      "componentType": 5126,
      "count": 19752,
      "max": [
        1.356713056564331,
        1.1966240406036377,
        2.9079880714416504
      ],
      "min": [
        -1.2816450595855713,
        -1.5795999765396118,
        0.010126999579370022
      ],
      "type": "VEC3"
    },
    {
      "bufferView": 2,
      "byteOffset": 11246400,
      "componentType": 5126,
      "count": 19752,
      "max": [
        0.999770998954773,
        0.999792218208313,
        0.999471127986908
      ],
      "min": [
        -0.9988513588905334,
        -0.9998554587364197,
        -0.9986268877983093
      ],
      "type": "VEC3"
    },
    {
      "bufferView": 1,
      "byteOffset": 3669792,
      "componentType": 5126,
      "count": 19752,
      "max": [
        0.9986580014228821,
        0.9841570258140564
      ],
      "min": [
        0.046594999730587006,
        0.8341609835624695
      ],
      "type": "VEC2"
    },
    {
      "bufferView": 0,
      "byteOffset": 1834896,
      "componentType": 5125,
      "count": 19752,
      "type": "SCALAR"
    }
  ],
  "asset": {
    "extras": {
      "author": "stevencmutter (https://sketchfab.com/stevencmutter)",
      "license": "CC-BY-SA-4.0 (http://creativecommons.org/licenses/by-sa/4.0/)",
      "source": "https://sketchfab.com/3d-models/pothos-house-plant-d4edb210b6774c70a499462f15f916cd",
      "title": "Pothos (House Plant)"
    },
    "generator": "Sketchfab-12.68.0",
    "version": "2.0"
  },
  "bufferViews": [
    {
      "buffer": 0,
      "byteLength": 1913904,
      "name": "floatBufferViews",
      "target": 34963
    },
    {
      "buffer": 0,
      "byteLength": 3827808,
      "byteOffset": 1913904,
      "byteStride": 8,
      "name": "floatBufferViews",
      "target": 34962
    },
    {
      "buffer": 0,
      "byteLength": 11483424,
      "byteOffset": 5741712,
      "byteStride": 12,
      "name": "floatBufferViews",
      "target": 34962
    }
  ],
  "buffers": [
    {
      "byteLength": 17225136,
      "uri": "scene.bin"
    }
  ],
  "extensionsUsed": [
    "KHR_materials_unlit"
  ],
  "images": [
    {
      "uri": "textures/material_baseColor.png"
    }
  ],
  "materials": [
    {
      "doubleSided": true,
      "extensions": {
        "KHR_materials_unlit": {}
      },
      "name": "material",
      "pbrMetallicRoughness": {
        "baseColorTexture": {
          "index": 0
        },
        "metallicFactor": 0.0
      }
    }
  ],
  "meshes": [
    {
      "name": "Object_0",
      "primitives": [
        {
          "attributes": {
            "NORMAL": 1,
            "POSITION": 0,
            "TEXCOORD_0": 2
          },
          "indices": 3,
          "material": 0,
          "mode": 4
        }
      ]
    },
    {
      "name": "Object_1",
      "primitives": [
        {
          "attributes": {
            "NORMAL": 5,
            "POSITION": 4,
            "TEXCOORD_0": 6
          },
          "indices": 7,
          "material": 0,
          "mode": 4
        }
      ]
    },
    {
      "name": "Object_2",
      "primitives": [
        {
          "attributes": {
            "NORMAL": 9,
            "POSITION": 8,
            "TEXCOORD_0": 10
          },
          "indices": 11,
          "material": 0,
          "mode": 4
        }
      ]
    },
    {
      "name": "Object_3",
      "primitives": [
        {
          "attributes": {
            "NORMAL": 13,
            "POSITION": 12,
            "TEXCOORD_0": 14
          },
          "indices": 15,
          "material": 0,
          "mode": 4
        }
      ]
    },
    {
      "name": "Object_4",
      "primitives": [
        {
          "attributes": {
            "NORMAL": 17,
            "POSITION": 16,
            "TEXCOORD_0": 18
          },
          "indices": 19,
          "material": 0,
          "mode": 4
        }
      ]
    },
    {
      "name": "Object_5",
      "primitives": [
        {
          "attributes": {
            "NORMAL": 21,
            "POSITION": 20,
            "TEXCOORD_0": 22
          },
          "indices": 23,
          "material": 0,
          "mode": 4
        }
      ]
    },
    {
      "name": "Object_6",
      "primitives": [
        {
          "attributes": {
            "NORMAL": 25,
            "POSITION": 24,
            "TEXCOORD_0": 26
          },
          "indices": 27,
          "material": 0,
          "mode": 4
        }
      ]
    },
    {
      "name": "Object_7",
      "primitives": [
        {
          "attributes": {
            "NORMAL": 29,
            "POSITION": 28,
            "TEXCOORD_0": 30
          },
          "indices": 31,
          "material": 0,
          "mode": 4
        }
      ]
    }
  ],
  "nodes": [
    {
      "children": [
        1
      ],
      "matrix": [
        0.08226403594017029,
        0.0,
        0.0,
        0.0,
        0.0,
        1.8266285359873688e-17,
        -0.08226403594017029,
        0.0,
        0.0,
        0.08226403594017029,
        1.8266285359873688e-17,
        0.0,
        0.0,
        0.0,
        0.0,
        1.0
      ],
      "name": "Sketchfab_model"
    },
    {
      "children": [
        2,
        3,
        4,
        5,
        6,
        7,
        8,
        9
      ],
      "name": "pottedplant.obj.cleaner.materialmerger.gles"
    },
    {
      "mesh": 0,
      "name": "Object_2"
    },
    {
      "mesh": 1,
      "name": "Object_3"
    },
    {
      "mesh": 2,
      "name": "Object_4"
    },
    {
      "mesh": 3,
      "name": "Object_5"
    },
    {
      "mesh": 4,
      "name": "Object_6"
    },
    {
      "mesh": 5,
      "name": "Object_7"
    },
    {
      "mesh": 6,
      "name": "Object_8"
    },
    {
      "mesh": 7,
      "name": "Object_9"
    }
  ],
  "samplers": [
    {
      "magFilter": 9729,
      "minFilter": 9987,
      "wrapS": 10497,
      "wrapT": 10497
    }
  ],
  "scene": 0,
  "scenes": [
    {
      "name": "Sketchfab_Scene",
      "nodes": [
        0
      ]
    }
  ],
  "textures": [
    {
      "sampler": 0,
      "source": 0
    }
  ]
}
