{
  "accessors": [
    {
      "bufferView": 2,
      "componentType": 5126,
      "count": 11086,
      "max": [
        1.317888855934143,
        3.769688606262207,
        1.1638484001159668
      ],
      "min": [
        -1.3104017972946167,
        0.005832582712173462,
        -1.1400476694107056
      ],
      "type": "VEC3"
    },
    {
      "bufferView": 2,
      "byteOffset": 133032,
      "componentType": 5126,
      "count": 11086,
      "max": [
        0.9998229742050171,
        0.9943053722381592,
        0.9989352822303772
      ],
      "min": [
        -0.9998229742050171,
        -0.9987516403198242,
        -0.9999799728393555
      ],
      "type": "VEC3"
    },
    {
      "bufferView": 1,
      "componentType": 5126,
      "count": 11086,
      "max": [
        0.9997840523719788,
        0.818528413772583
      ],
      "min": [
        0.00021608649694826454,
        0.00021608649694826454
      ],
      "type": "VEC2"
    },
    {
      "bufferView": 0,
      "componentType": 5125,
      "count": 16632,
      "type": "SCALAR"
    },
    {
      "bufferView": 2,
      "byteOffset": 266064,
      "componentType": 5126,
      "count": 1573,
      "max": [
        0.9775819182395935,
        1.8115930557250977,
        0.9983550906181335
      ],
      "min": [
        -0.9775819182395935,
        1.5203850269317627,
        0.8943564295768738
      ],
      "type": "VEC3"
    },
    {
      "bufferView": 2,
      "byteOffset": 284940,
      "componentType": 5126,
      "count": 1573,
      "max": [
        0.9801851511001587,
        0.9997317790985107,
        0.9999865889549255
      ],
      "min": [
        -0.9801832437515259,
        -0.9998771548271179,
        -0.9997789263725281
      ],
      "type": "VEC3"
    },
    {
      "bufferView": 1,
      "byteOffset": 88688,
      "componentType": 5126,
      "count": 1573,
      "max": [
        0.4168451428413391,
        0.9999225735664368
      ],
      "min": [
        7.753992395009845e-05,
        7.753992395009845e-05
      ],
      "type": "VEC2"
    },
    {
      "bufferView": 0,
      "byteOffset": 66528,
      "componentType": 5125,
      "count": 8448,
      "type": "SCALAR"
    },
    {
      "bufferView": 2,
      "byteOffset": 303816,
      "componentType": 5126,
      "count": 1674,
      "max": [
        0.9925429821014404,
        1.735343098640442,
        -0.9013186693191528
      ],
      "min": [
        -0.9925429821014404,
        1.4438846111297607,
        -0.994425892829895
      ],
      "type": "VEC3"
    },
    {
      "bufferView": 2,
      "byteOffset": 323904,
      "componentType": 5126,
      "count": 1674,
      "max": [
        0.9801821708679199,
        0.998783528804779,
        0.9999825954437256
      ],
      "min": [
        -0.9801824688911438,
        -0.9999977350234985,
        -0.9999932646751404
      ],
      "type": "VEC3"
    },
    {
      "bufferView": 1,
      "byteOffset": 101272,
      "componentType": 5126,
      "count": 1674,
      "max": [
        0.8750001192092896,
        1.0000001192092896
      ],
      "min": [
        0.1250000149011612,
        0.25
      ],
      "type": "VEC2"
    },
    {
      "bufferView": 0,
      "byteOffset": 100320,
      "componentType": 5125,
      "count": 8448,
      "type": "SCALAR"
    },
    {
      "bufferView": 2,
      "byteOffset": 343992,
      "componentType": 5126,
      "count": 1191,
      "max": [
        1.2996525764465332,
        2.4876296520233154,
        1.2665820121765137
      ],
      "min": [
        -1.292165756225586,
        2.1361191272735596,
        -0.7962212562561035
      ],
      "type": "VEC3"
    },
    {
      "bufferView": 2,
      "byteOffset": 358284,
      "componentType": 5126,
      "count": 1191,
      "max": [
        0.9986734986305237,
        0.9981781840324402,
        0.9911978840827942
      ],
      "min": [
        -0.9986749291419983,
        -0.9981781244277954,
        -0.9926111698150635
      ],
      "type": "VEC3"
    },
    {
      "bufferView": 1,
      "byteOffset": 114664,
      "componentType": 5126,
      "count": 1191,
      "max": [
        0.9999006986618042,
        0.9902960658073425
      ],
      "min": [
        9.949871309800074e-05,
        9.949872764991596e-05
      ],
      "type": "VEC2"
    },
    {
      "bufferView": 0,
      "byteOffset": 134112,
      "componentType": 5125,
      "count": 5616,
      "type": "SCALAR"
    },
    {
      "bufferView": 2,
      "byteOffset": 372576,
      "componentType": 5126,
      "count": 1424,
      "max": [
        1.0083550214767456,
        2.3865890502929688,
        0.0858156830072403
      ],
      "min": [
        -1.0008682012557983,
        2.373061180114746,
        0.010529488325119019
      ],
      "type": "VEC3"
    },
    {
      "bufferView": 2,
      "byteOffset": 389664,
      "componentType": 5126,
      "count": 1424,
      "max": [
        0.8876796364784241,
        0.9983468651771545,
        0.7334557771682739
      ],
      "min": [
        -0.8876474499702454,
        0.46045786142349243,
        -0.7700886130332947
      ],
      "type": "VEC3"
    },
    {
      "bufferView": 1,
      "byteOffset": 124192,
      "componentType": 5126,
      "count": 1424,
      "max": [
        0.999883234500885,
        0.513998806476593
      ],
      "min": [
        0.00011684281344059855,
        0.00011684281344059855
      ],
      "type": "VEC2"
    },
    {
      "bufferView": 0,
      "byteOffset": 156576,
      "componentType": 5125,
      "count": 2136,
      "type": "SCALAR"
    },
    {
      "bufferView": 2,
      "byteOffset": 406752,
      "componentType": 5126,
      "count": 48,
      "max": [
        0.9858752489089966,
        2.3833513259887695,
        0.06396372616291046
      ],
      "min": [
        -0.9783884286880493,
        2.3775405883789063,
        0.03217444568872452
      ],
      "type": "VEC3"
    },
    {
      "bufferView": 2,
      "byteOffset": 407328,
      "componentType": 5126,
      "count": 48,
      "max": [
        0.16551236808300018,
        0.984420120716095,
        -0.06761988252401352
      ],
      "min": [
        -0.16549302637577057,
        0.9837864637374878,
        -0.07172324508428574
      ],
      "type": "VEC3"
    },
    {
      "bufferView": 1,
      "byteOffset": 135584,
      "componentType": 5126,
      "count": 48,
      "max": [
        0.6507138609886169,
        0.675327479839325
      ],
      "min": [
        0.5010814666748047,
        0.4991573393344879
      ],
      "type": "VEC2"
    },
    {
      "bufferView": 0,
      "byteOffset": 165120,
      "componentType": 5125,
      "count": 72,
      "type": "SCALAR"
    },
    {
      "bufferView": 2,
      "byteOffset": 407904,
      "componentType": 5126,
      "count": 1424,
      "max": [
        0.9838395118713379,
        2.419501781463623,
        0.694088876247406
      ],
      "min": [
        -0.9763524532318115,
        2.4062798023223877,
        0.6187751889228821
      ],
      "type": "VEC3"
    },
    {
      "bufferView": 2,
      "byteOffset": 424992,
      "componentType": 5126,
      "count": 1424,
      "max": [
        0.8864467740058899,
        0.998510479927063,
        0.7374195456504822
      ],
      "min": [
        -0.8867522478103638,
        0.4622141420841217,
        -0.7665345072746277
      ],
      "type": "VEC3"
    },
    {
      "bufferView": 1,
      "byteOffset": 135968,
      "componentType": 5126,
      "count": 1424,
      "max": [
        0.933012843132019,
        1.0000001192092896
      ],
      "min": [
        0.0,
        0.0
      ],
      "type": "VEC2"
    },
    {
      "bufferView": 0,
      "byteOffset": 165408,
      "componentType": 5125,
      "count": 2136,
      "type": "SCALAR"
    },
    {
      "bufferView": 2,
      "byteOffset": 442080,
      "componentType": 5126,
      "count": 48,
      "max": [
        0.9613596200942993,
        2.416337251663208,
        0.672234296798706
      ],
      "min": [
        -0.9538724422454834,
        2.4106760025024414,
        0.640431821346283
      ],
      "type": "VEC3"
    },
    {
      "bufferView": 2,
      "byteOffset": 442656,
      "componentType": 5126,
      "count": 48,
      "max": [
        0.16334079205989838,
        0.9851677417755127,
        -0.06168960779905319
      ],
      "min": [
        -0.1633434295654297,
        0.9845460057258606,
        -0.065775066614151
      ],
      "type": "VEC3"
    },
    {
      "bufferView": 1,
      "byteOffset": 147360,
      "componentType": 5126,
      "count": 48,
      "max": [
        0.933012843132019,
        1.0000001192092896
      ],
      "min": [
        0.06698727607727051,
        0.0
      ],
      "type": "VEC2"
    },
    {
      "bufferView": 0,
      "byteOffset": 173952,
      "componentType": 5125,
      "count": 72,
      "type": "SCALAR"
    },
    {
      "bufferView": 2,
      "byteOffset": 443232,
      "componentType": 5126,
      "count": 1211,
      "max": [
        1.218647837638855,
        4.108563423156738,
        -0.5541710257530212
      ],
      "min": [
        -1.2111611366271973,
        2.6379570960998535,
        -1.25536048412323
      ],
      "type": "VEC3"
    },
    {
      "bufferView": 2,
      "byteOffset": 457764,
      "componentType": 5126,
      "count": 1211,
      "max": [
        0.9872251152992249,
        0.9996240735054016,
        0.9786638617515564
      ],
      "min": [
        -0.9872251152992249,
        -0.9678855538368225,
        -0.9992202520370483
      ],
      "type": "VEC3"
    },
    {
      "bufferView": 1,
      "byteOffset": 147744,
      "componentType": 5126,
      "count": 1211,
      "max": [
        0.7611581683158875,
        0.9999127984046936
      ],
      "min": [
        8.723177597858012e-05,
        8.723177597858012e-05
      ],
      "type": "VEC2"
    },
    {
      "bufferView": 0,
      "byteOffset": 174240,
      "componentType": 5125,
      "count": 5616,
      "type": "SCALAR"
    },
    {
      "bufferView": 2,
      "byteOffset": 472296,
      "componentType": 5126,
      "count": 1424,
      "max": [
        0.8106065392494202,
        3.1953635215759277,
        -0.7748134732246399
      ],
      "min": [
        -0.8031195402145386,
        3.1223394870758057,
        -0.8094392418861389
      ],
      "type": "VEC3"
    },
    {
      "bufferView": 2,
      "byteOffset": 489384,
      "componentType": 5126,
      "count": 1424,
      "max": [
        0.9690513014793396,
        0.8727460503578186,
        0.9802197813987732
      ],
      "min": [
        -0.9690086841583252,
        -0.6006273031234741,
        0.18789726495742798
      ],
      "type": "VEC3"
    },
    {
      "bufferView": 1,
      "byteOffset": 157432,
      "componentType": 5126,
      "count": 1424,
      "max": [
        0.933012843132019,
        1.0000001192092896
      ],
      "min": [
        0.0,
        0.0
      ],
      "type": "VEC2"
    },
    {
      "bufferView": 0,
      "byteOffset": 196704,
      "componentType": 5125,
      "count": 2136,
      "type": "SCALAR"
    },
    {
      "bufferView": 2,
      "byteOffset": 506472,
      "componentType": 5126,
      "count": 48,
      "max": [
        0.7889844179153442,
        3.174475908279419,
        -0.7840098142623901
      ],
      "min": [
        -0.7814974188804626,
        3.143836498260498,
        -0.7989566922187805
      ],
      "type": "VEC3"
    },
    {
      "bufferView": 2,
      "byteOffset": 507048,
      "componentType": 5126,
      "count": 48,
      "max": [
        0.383999764919281,
        0.2564755082130432,
        0.889324963092804
      ],
      "min": [
        -0.3840044140815735,
        0.25239837169647217,
        0.8877778649330139
      ],
      "type": "VEC3"
    },
    {
      "bufferView": 1,
      "byteOffset": 168824,
      "componentType": 5126,
      "count": 48,
      "max": [
        0.933012843132019,
        1.0000001192092896
      ],
      "min": [
        0.06698727607727051,
        0.0
      ],
      "type": "VEC2"
    },
    {
      "bufferView": 0,
      "byteOffset": 205248,
      "componentType": 5125,
      "count": 72,
      "type": "SCALAR"
    },
    {
      "bufferView": 2,
      "byteOffset": 507624,
      "componentType": 5126,
      "count": 1424,
      "max": [
        0.7301779389381409,
        3.703145980834961,
        -0.9484200477600098
      ],
      "min": [
        -0.7226909399032593,
        3.6298205852508545,
        -0.9810144305229187
      ],
      "type": "VEC3"
    },
    {
      "bufferView": 2,
      "byteOffset": 524712,
      "componentType": 5126,
      "count": 1424,
      "max": [
        0.9628604650497437,
        0.8643317222595215,
        0.9743209481239319
      ],
      "min": [
        -0.9628931879997253,
        -0.6119144558906555,
        0.2164107710123062
      ],
      "type": "VEC3"
    },
    {
      "bufferView": 1,
      "byteOffset": 169208,
      "componentType": 5126,
      "count": 1424,
      "max": [
        0.933012843132019,
        1.0000001192092896
      ],
      "min": [
        0.0,
        0.0
      ],
      "type": "VEC2"
    },
    {
      "bufferView": 0,
      "byteOffset": 205536,
      "componentType": 5125,
      "count": 2136,
      "type": "SCALAR"
    },
    {
      "bufferView": 2,
      "byteOffset": 541800,
      "componentType": 5126,
      "count": 48,
      "max": [
        0.708427369594574,
        3.682163953781128,
        -0.9570428133010864
      ],
      "min": [
        -0.7009404301643372,
        3.6513679027557373,
        -0.9711093902587891
      ],
      "type": "VEC3"
    },
    {
      "bufferView": 2,
      "byteOffset": 542376,
      "componentType": 5126,
      "count": 48,
      "max": [
        0.3617383539676666,
        0.2411603480577469,
        0.9027236104011536
      ],
      "min": [
        -0.3617379069328308,
        0.23707935214042664,
        0.9012676477432251
      ],
      "type": "VEC3"
    },
    {
      "bufferView": 1,
      "byteOffset": 180600,
      "componentType": 5126,
      "count": 48,
      "max": [
        0.933012843132019,
        1.0000001192092896
      ],
      "min": [
        0.06698727607727051,
        0.0
      ],
      "type": "VEC2"
    },
    {
      "bufferView": 0,
      "byteOffset": 214080,
      "componentType": 5125,
      "count": 72,
      "type": "SCALAR"
    }
  ],
  "asset": {
    "extras": {
      "author": "sadafsketcher331 (https://sketchfab.com/sadafsketcher331)",
      "license": "CC-BY-SA-4.0 (http://creativecommons.org/licenses/by-sa/4.0/)",
      "source": "https://sketchfab.com/3d-models/corvus-mid-century-modern-accent-chair-e2263b527e554c148281a9bac336aa64",
      "title": "Corvus-Mid-century-Modern-Accent-Chair"
    },
    "generator": "Sketchfab-14.17.0",
    "version": "2.0"
  },
  "bufferViews": [
    {
      "buffer": 0,
      "byteLength": 214368,
      "name": "floatBufferViews",
      "target": 34963
    },
    {
      "buffer": 0,
      "byteLength": 180984,
      "byteOffset": 214368,
      "byteStride": 8,
      "name": "floatBufferViews",
      "target": 34962
    },
    {
      "buffer": 0,
      "byteLength": 542952,
      "byteOffset": 395352,
      "byteStride": 12,
      "name": "floatBufferViews",
      "target": 34962
    }
  ],
  "buffers": [
    {
      "byteLength": 938304,
      "uri": "scene.bin"
    }
  ],
  "images": [
    {
      "uri": "textures/Material.009_baseColor.jpeg"
    },
    {
      "uri": "textures/Material.009_metallicRoughness.png"
    }
  ],
  "materials": [
    {
      "doubleSided": true,
      "name": "Material.009",
      "pbrMetallicRoughness": {
        "baseColorTexture": {
          "index": 0
        },
        "metallicRoughnessTexture": {
          "index": 1
        }
      }
    },
    {
      "doubleSided": true,
      "name": "Material.001",
      "pbrMetallicRoughness": {
        "baseColorTexture": {
          "index": 0
        },
        "metallicFactor": 0.0,
        "roughnessFactor": 0.5
      }
    },
    {
      "doubleSided": true,
      "name": "Material.004",
      "pbrMetallicRoughness": {
        "baseColorFactor": [
          0.114222,
          0.114222,
          0.114222,
          1.0
        ],
        "metallicFactor": 0.0,
        "roughnessFactor": 0.5
      }
    },
    {
      "doubleSided": true,
      "name": "Material.005",
      "pbrMetallicRoughness": {
        "baseColorFactor": [
          0.0,
          0.0,
          0.0,
          1.0
        ],
        "metallicFactor": 0.0,
        "roughnessFactor": 0.5
      }
    }
  ],
  "meshes": [
    {
      "name": "Object_0",
      "primitives": [
        {
          "attributes": {
            "NORMAL": 1,
            "POSITION": 0,
            "TEXCOORD_0": 2
          },
          "indices": 3,
          "material": 0,
          "mode": 4
        }
      ]
    },
    {
      "name": "Object_1",
      "primitives": [
        {
          "attributes": {
            "NORMAL": 5,
            "POSITION": 4,
            "TEXCOORD_0": 6
          },
          "indices": 7,
          "material": 0,
          "mode": 4
        }
      ]
    },
    {
      "name": "Object_2",
      "primitives": [
        {
          "attributes": {
            "NORMAL": 9,
            "POSITION": 8,
            "TEXCOORD_0": 10
          },
          "indices": 11,
          "material": 1,
          "mode": 4
        }
      ]
    },
    {
      "name": "Object_3",
      "primitives": [
        {
          "attributes": {
            "NORMAL": 13,
            "POSITION": 12,
            "TEXCOORD_0": 14
          },
          "indices": 15,
          "material": 0,
          "mode": 4
        }
      ]
    },
    {
      "name": "Object_4",
      "primitives": [
        {
          "attributes": {
            "NORMAL": 17,
            "POSITION": 16,
            "TEXCOORD_0": 18
          },
          "indices": 19,
          "material": 2,
          "mode": 4
        }
      ]
    },
    {
      "name": "Object_5",
      "primitives": [
        {
          "attributes": {
            "NORMAL": 21,
            "POSITION": 20,
            "TEXCOORD_0": 22
          },
          "indices": 23,
          "material": 3,
          "mode": 4
        }
      ]
    },
    {
      "name": "Object_6",
      "primitives": [
        {
          "attributes": {
            "NORMAL": 25,
            "POSITION": 24,
            "TEXCOORD_0": 26
          },
          "indices": 27,
          "material": 2,
          "mode": 4
        }
      ]
    },
    {
      "name": "Object_7",
      "primitives": [
        {
          "attributes": {
            "NORMAL": 29,
            "POSITION": 28,
            "TEXCOORD_0": 30
          },
          "indices": 31,
          "material": 3,
          "mode": 4
        }
      ]
    },
    {
      "name": "Object_8",
      "primitives": [
        {
          "attributes": {
            "NORMAL": 33,
            "POSITION": 32,
            "TEXCOORD_0": 34
          },
          "indices": 35,
          "material": 0,
          "mode": 4
        }
      ]
    },
    {
      "name": "Object_9",
      "primitives": [
        {
          "attributes": {
            "NORMAL": 37,
            "POSITION": 36,
            "TEXCOORD_0": 38
          },
          "indices": 39,
          "material": 2,
          "mode": 4
        }
      ]
    },
    {
      "name": "Object_10",
      "primitives": [
        {
          "attributes": {
            "NORMAL": 41,
            "POSITION": 40,
            "TEXCOORD_0": 42
          },
          "indices": 43,
          "material": 3,
          "mode": 4
        }
      ]
    },
    {
      "name": "Object_11",
      "primitives": [
        {
          "attributes": {
            "NORMAL": 45,
            "POSITION": 44,
            "TEXCOORD_0": 46
          },
          "indices": 47,
          "material": 2,
          "mode": 4
        }
      ]
    },
    {
      "name": "Object_12",
      "primitives": [
        {
          "attributes": {
            "NORMAL": 49,
            "POSITION": 48,
            "TEXCOORD_0": 50
          },
          "indices": 51,
          "material": 3,
          "mode": 4
        }
      ]
    }
  ],
  "nodes": [
    {
      "children": [
        1
      ],
      "matrix": [
        1.0,
        0.0,
        0.0,
        0.0,
        0.0,
        2.220446049250313e-16,
        -1.0,
        0.0,
        0.0,
        1.0,
        2.220446049250313e-16,
        0.0,
        0.0,
        0.0,
        0.0,
        1.0
      ],
      "name": "Sketchfab_model"
    },
    {
      "children": [
        2
      ],
      "name": "root"
    },
    {
      "children": [
        3
      ],
      "matrix": [
        1.0,
        0.0,
        0.0,
        0.0,
        0.0,
        2.220446049250313e-16,
        1.0,
        0.0,
        0.0,
        -1.0,
        2.220446049250313e-16,
        0.0,
        0.0,
        0.0,
        0.0,
        1.0
      ],
      "name": "GLTF_SceneRootNode"
    },
    {
      "children": [
        4,
        5,
        7,
        9,
        17
      ],
      "name": "Cube_8"
    },
    {
      "mesh": 0,
      "name": "Object_4"
    },
    {
      "children": [
        6
      ],
      "name": "Cube.001_0"
    },
    {
      "mesh": 1,
      "name": "Object_6"
    },
    {
      "children": [
        8
      ],
      "name": "Cube.002_1"
    },
    {
      "mesh": 2,
      "name": "Object_8"
    },
    {
      "children": [
        10,
        11,
        14
      ],
      "name": "Plane_4"
    },
    {
      "mesh": 3,
      "name": "Object_10"
    },
    {
      "children": [
        12,
        13
      ],
      "name": "Circle_2"
    },
    {
      "mesh": 4,
      "name": "Object_12"
    },
    {
      "mesh": 5,
      "name": "Object_13"
    },
    {
      "children": [
        15,
        16
      ],
      "name": "Circle.001_3"
    },
    {
      "mesh": 6,
      "name": "Object_15"
    },
    {
      "mesh": 7,
      "name": "Object_16"
    },
    {
      "children": [
        18,
        19,
        22
      ],
      "name": "Plane.001_7"
    },
    {
      "mesh": 8,
      "name": "Object_18"
    },
    {
      "children": [
        20,
        21
      ],
      "name": "Circle.002_5"
    },
    {
      "mesh": 9,
      "name": "Object_20"
    },
    {
      "mesh": 10,
      "name": "Object_21"
    },
    {
      "children": [
        23,
        24
      ],
      "name": "Circle.003_6"
    },
    {
      "mesh": 11,
      "name": "Object_23"
    },
    {
      "mesh": 12,
      "name": "Object_24"
    }
  ],
  "samplers": [
    {
      "magFilter": 9729,
      "minFilter": 9987,
      "wrapS": 10497,
      "wrapT": 10497
    }
  ],
  "scene": 0,
  "scenes": [
    {
      "name": "Sketchfab_Scene",
      "nodes": [
        0
      ]
    }
  ],
  "textures": [
    {
      "sampler": 0,
      "source": 0
    },
    {
      "sampler": 0,
      "source": 1
    }
  ]
}
